<svg xmlns="http://www.w3.org/2000/svg" width="1200" height="790" viewBox="0 0 1200 790" role="img" aria-labelledby="title desc">
<title id="title">月諭アルカナ交換・完全マッチの仕組み</title><desc id="desc">22種類を登録 → 同じサーバー → 双方の求・譲を比較</desc>
<defs><linearGradient id="back" x2="1" y2="1"><stop stop-color="#081c36"/><stop offset="1" stop-color="#143859"/></linearGradient><linearGradient id="edge"><stop stop-color="#e0bd79"/><stop offset="1" stop-color="#8eb4b7"/></linearGradient></defs>
<rect width="1200" height="790" rx="28" fill="url(#back)"/><circle cx="1140" cy="80" r="210" fill="#284b68" opacity=".22"/><circle cx="40" cy="760" r="240" fill="#177b81" opacity=".10"/>
<rect x="28" y="28" width="1144" height="734" rx="16" fill="none" stroke="#c8a86f" stroke-opacity=".45" stroke-width="2"/>
<g font-family="'Noto Sans CJK JP','Yu Gothic','Hiragino Kaku Gothic ProN',sans-serif">
<text x="70" y="93" fill="#dab879" font-size="18" letter-spacing="5">ARCANA LINK  /  ORIGINAL GUIDE</text>
<text x="70" y="158" fill="#f6f3e9" font-size="42" font-weight="700">月諭アルカナ交換・完全マッチの仕組み</text>
<text x="70" y="200" fill="#b8cad6" font-size="21">22種類を登録 → 同じサーバー → 双方の求・譲を比較</text>
<rect x="70" y="242" width="290" height="153" rx="16" fill="#12324f" stroke="#69839b"/><text x="92" y="277" font-size="22" font-weight="700" fill="#d8b67b">01</text><text x="92" y="322" font-size="25" font-weight="700" fill="#fff">所持数を登録</text><text x="92" y="360" font-size="17" font-weight="500" fill="#bdd0db">0枚＝求  /  2枚以上＝譲</text><rect x="455" y="242" width="290" height="153" rx="16" fill="#12324f" stroke="#69839b"/><text x="477" y="277" font-size="22" font-weight="700" fill="#d8b67b">02</text><text x="477" y="322" font-size="25" font-weight="700" fill="#fff">サーバーを確認</text><text x="477" y="360" font-size="17" font-weight="500" fill="#bdd0db">同じサーバーの募集を対象</text><rect x="840" y="242" width="290" height="153" rx="16" fill="#12324f" stroke="#69839b"/><text x="862" y="277" font-size="22" font-weight="700" fill="#d8b67b">03</text><text x="862" y="322" font-size="25" font-weight="700" fill="#fff">求・譲を照合</text><text x="862" y="360" font-size="17" font-weight="500" fill="#bdd0db">双方が交換できる種類を確認</text><path d="M372 317h45m-13-12 13 12-13 12" fill="none" stroke="#d2b573" stroke-width="3"/><path d="M757 317h45m-13-12 13 12-13 12" fill="none" stroke="#d2b573" stroke-width="3"/><text x="73" y="462" font-size="19" font-weight="500" fill="#c8d9e0">相互一致の例  ·  実際の募集数ではありません</text><rect x="70" y="486" width="470" height="182" rx="16" fill="#112d4b" stroke="#497f87"/><rect x="660" y="486" width="470" height="182" rx="16" fill="#112d4b" stroke="#497f87"/><text x="98" y="533" font-size="26" font-weight="700" fill="#e5c58c">あなた  /  Asia</text><text x="687" y="533" font-size="26" font-weight="700" fill="#e5c58c">相手  /  Asia</text><text x="98" y="583" font-size="27" font-weight="500" fill="#f5f2e8">求：世界</text><text x="98" y="629" font-size="27" font-weight="500" fill="#f5f2e8">譲：魔術師</text><text x="687" y="583" font-size="27" font-weight="500" fill="#f5f2e8">求：魔術師</text><text x="687" y="629" font-size="27" font-weight="500" fill="#f5f2e8">譲：世界</text><path d="M560 559h80m-19-18 19 18-19 18m19 43h-80m19-18-19 18 19 18" fill="none" stroke="#e5c58c" stroke-width="4"/><path d="M70 707H1130" stroke="#b6935e" stroke-opacity=".65"/><text x="70" y="738" fill="#c9d9e0" font-size="18">arcana-card-link.pages.dev  ·  非公式のオリジナル図解</text></g></svg>